<svg version="1.0" xmlns="http://www.w3.org/2000/svg" width="100px" viewBox="0 0 332.000000 142.000000" preserveAspectRatio="xMidYMid meet"> <g transform="translate(0.000000,142.000000) scale(0.050000,-0.050000)" fill="var(--gms-text-color)" stroke="none"> <path fill="--var-logo-color" d="M430 2710 c-75 -27 -150 -93 -150 -132 0 -10 371 -18 860 -18 l860 0 0 90 0 90 -745 -1 c-591 -1 -762 -7 -825 -29z" /> <path fill="--var-logo-color" d="M2173 2727 c-7 -8 -13 -48 -13 -90 l0 -77 260 0 c143 0 260 5 260 11 0 6 -18 46 -40 90 l-41 79 -206 0 c-114 0 -212 -6 -220 -13z" /> <path fill="--var-logo-color" d="M3905 2651 l-44 -91 264 0 265 0 0 85 0 85 -221 6 -220 5 -44 -90z" /> <path fill="--var-logo-color" d="M4760 2717 c-75 -22 -132 -64 -163 -122 -17 -33 27 -35 851 -35 l868 0 -3 85 -3 85 -740 3 c-445 2 -768 -4 -810 -16z" /> <path fill="--var-logo-color" d="M240 2415 l0 -86 880 -6 880 -6 0 91 0 92 -880 0 -880 0 0 -85z" /> <path fill="--var-logo-color" d="M2164 2416 l7 -83 315 -2 c172 0 314 1 314 5 0 3 -18 41 -40 85 l-41 79 -281 0 -281 0 7 -84z" /> <path fill="--var-logo-color" d="M3795 2423 c-19 -42 -35 -80 -35 -85 0 -4 139 -8 310 -8 l310 0 0 85 0 85 -275 -1 -275 0 -35 -76z" /> <path fill="--var-logo-color" d="M4560 2415 l0 -86 879 -6 879 -6 -4 91 -4 92 -875 0 -875 0 0 -85z" /> <path fill="--var-logo-color" d="M240 2180 l0 -80 220 0 220 0 0 80 0 80 -220 0 -220 0 0 -80z" /> <path fill="--var-logo-color" d="M2160 2180 l0 -80 380 0 381 0 -41 80 -41 80 -339 0 -340 0 0 -80z" /> <path fill="--var-logo-color" d="M3676 2180 l-33 -80 366 0 367 0 7 80 8 80 -340 0 -341 0 -34 -80z" /> <path fill="--var-logo-color" d="M4560 2180 l0 -80 220 0 220 0 0 80 0 80 -220 0 -220 0 0 -80z" /> <path fill="--var-logo-color" d="M240 1950 l0 -90 220 0 220 0 0 90 0 90 -220 0 -220 0 0 -90z" /> <path fill="--var-logo-color" d="M960 1950 l0 -90 520 0 520 0 0 90 0 90 -520 0 -520 0 0 -90z" /> <path fill="--var-logo-color" d="M2160 1950 l0 -90 439 0 439 0 -44 90 -44 90 -395 0 -395 0 0 -90z" /> <path fill="--var-logo-color" d="M3564 1950 l-43 -90 429 0 430 0 0 90 0 90 -386 0 -386 0 -44 -90z" /> <path fill="--var-logo-color" d="M4560 1950 l0 -90 860 0 c473 0 860 7 860 16 0 28 -108 121 -166 143 -36 13 -325 21 -805 21 l-749 0 0 -90z" /> <path fill="--var-logo-color" d="M240 1715 l0 -85 220 0 220 0 0 85 0 85 -220 0 -220 0 0 -85z" /> <path fill="--var-logo-color" d="M964 1715 l6 -85 510 5 510 5 6 80 6 80 -522 0 -522 0 6 -85z" /> <path fill="--var-logo-color" d="M2164 1715 c4 -53 15 -84 31 -83 14 1 111 3 215 5 166 3 190 7 191 38 0 32 2 33 26 2 21 -29 513 -68 513 -41 0 3 -18 41 -40 85 l-41 79 -451 0 -450 0 6 -85z" /> <path fill="--var-logo-color" d="M3454 1729 c-19 -39 -34 -77 -34 -85 0 -33 487 -2 513 33 24 31 26 31 26 -1 1 -29 30 -34 206 -40 249 -8 228 -16 219 83 l-8 81 -444 0 -445 0 -33 -71z" /> <path fill="--var-logo-color" d="M4605 1756 c85 -130 60 -126 921 -123 l782 3 4 82 4 82 -870 0 -871 0 30 -44z" /> <path fill="--var-logo-color" d="M240 1485 l0 -85 220 0 220 0 0 85 0 85 -220 0 -220 0 0 -85z" /> <path fill="--var-logo-color" d="M1755 1565 l-195 -6 0 -80 0 -79 221 0 221 0 -6 83 c-3 46 -15 85 -26 86 -11 1 -108 -1 -215 -4z" /> <path fill="--var-logo-color" d="M2174 1567 c-8 -7 -14 -48 -14 -90 l0 -77 220 0 220 0 0 80 0 80 -178 0 c-98 0 -191 5 -206 11 -16 5 -34 4 -42 -4z" /> <path fill="--var-logo-color" d="M2689 1563 c-4 -5 11 -43 32 -85 l40 -78 251 0 251 0 -47 82 -46 82 -237 3 c-130 2 -240 0 -244 -4z" /> <path fill="--var-logo-color" d="M3342 1485 l-41 -85 250 0 251 0 27 65 c15 36 28 72 29 81 1 8 -105 17 -236 20 l-239 4 -41 -85z" /> <path fill="--var-logo-color" d="M4145 1565 l-205 -6 0 -80 0 -79 225 0 225 0 -2 84 c-2 46 -11 85 -20 86 -10 0 -110 -2 -223 -5z" /> <path fill="--var-logo-color" d="M6077 1565 l-193 -6 -7 -80 -8 -79 222 0 221 0 -2 84 c-1 46 -11 84 -21 85 -10 1 -106 -1 -212 -4z" /> <path fill="--var-logo-color" d="M240 1250 l0 -90 220 0 220 0 0 90 0 90 -220 0 -220 0 0 -90z" /> <path fill="--var-logo-color" d="M1560 1250 l0 -90 220 0 220 0 0 90 0 90 -220 0 -220 0 0 -90z" /> <path fill="--var-logo-color" d="M2164 1255 l6 -85 215 -6 215 -5 0 90 0 91 -221 0 -221 0 6 -85z" /> <path fill="--var-logo-color" d="M2800 1329 c0 -6 18 -46 40 -90 l41 -79 399 0 399 0 41 79 c22 44 40 84 40 90 0 6 -216 11 -480 11 -264 0 -480 -5 -480 -11z" /> <path fill="--var-logo-color" d="M3940 1250 l0 -90 218 0 218 0 8 81 c10 105 23 99 -227 99 l-217 0 0 -90z" /> <path fill="--var-logo-color" d="M5868 1308 c7 -17 12 -58 12 -90 l0 -59 214 5 214 6 2 85 2 85 -228 0 c-200 0 -227 -4 -216 -32z" /> <path fill="--var-logo-color" d="M244 1015 c3 -47 13 -83 21 -80 8 3 402 5 875 5 l860 0 0 80 0 80 -881 0 -881 0 6 -85z" /> <path fill="--var-logo-color" d="M2164 1020 l-1 -80 226 0 c206 0 227 3 221 35 -4 19 -8 55 -8 80 -2 44 -8 45 -220 45 l-217 0 -1 -80z" /> <path fill="--var-logo-color" d="M2940 1020 l41 -80 296 0 296 0 33 71 c19 39 34 75 34 80 0 5 -167 9 -370 9 l-371 0 41 -80z" /> <path fill="--var-logo-color" d="M3940 1020 l0 -80 226 0 225 0 -8 80 -7 80 -218 0 -218 0 0 -80z" /> <path fill="--var-logo-color" d="M4560 1020 l0 -80 877 0 878 0 -2 80 -2 80 -876 0 -875 0 0 -80z" /> <path fill="--var-logo-color" d="M285 835 c89 -136 81 -135 938 -135 l777 0 0 90 0 90 -872 0 -873 0 30 -45z" /> <path fill="--var-logo-color" d="M2173 867 c-7 -8 -13 -48 -13 -90 l0 -77 232 0 c204 0 231 4 220 32 -7 17 -12 58 -12 90 l0 58 -207 0 c-113 0 -212 -6 -220 -13z" /> <path fill="--var-logo-color" d="M3020 869 c0 -6 18 -46 40 -90 l41 -79 175 0 176 0 44 90 43 90 -259 0 c-143 0 -260 -5 -260 -11z" /> <path fill="--var-logo-color" d="M3940 790 l0 -90 232 0 c204 0 231 4 220 32 -7 17 -12 58 -12 90 l0 58 -220 0 -220 0 0 -90z" /> <path fill="--var-logo-color" d="M4560 790 l0 -90 771 0 c645 0 780 5 829 30 55 28 120 101 120 134 0 9 -387 16 -860 16 l-860 0 0 -90z" /> <path d="M260 510 c0 -17 18 -30 40 -30 36 0 40 -13 40 -120 0 -107 4 -120 40 -120 36 0 40 13 40 120 0 107 4 120 40 120 22 0 40 13 40 30 0 23 -27 30 -120 30 -93 0 -120 -7 -120 -30z" /> <path d="M540 390 c0 -120 6 -150 30 -150 20 0 30 20 30 60 0 53 7 60 60 60 53 0 60 -7 60 -60 0 -40 10 -60 30 -60 24 0 30 30 30 150 0 120 -6 150 -30 150 -20 0 -30 -20 -30 -60 0 -53 -7 -60 -60 -60 -53 0 -60 7 -60 60 0 40 -10 60 -30 60 -24 0 -30 -30 -30 -150z" /> <path d="M860 390 l0 -150 90 0 c67 0 90 8 90 30 0 20 -20 30 -60 30 -40 0 -60 10 -60 30 0 19 19 30 50 30 31 0 50 11 50 30 0 19 -19 30 -50 30 -31 0 -50 11 -50 30 0 20 20 30 60 30 40 0 60 10 60 30 0 22 -23 30 -90 30 l-90 0 0 -150z" /> <path d="M1160 510 c0 -17 18 -30 40 -30 36 0 40 -13 40 -120 0 -107 4 -120 40 -120 36 0 40 13 40 120 0 107 4 120 40 120 22 0 40 13 40 30 0 23 -27 30 -120 30 -93 0 -120 -7 -120 -30z" /> <path d="M1440 390 l0 -150 90 0 c67 0 90 8 90 30 0 20 -20 30 -60 30 -40 0 -60 10 -60 30 0 19 19 30 50 30 31 0 50 11 50 30 0 19 -19 30 -50 30 -31 0 -50 11 -50 30 0 20 20 30 60 30 40 0 60 10 60 30 0 22 -23 30 -90 30 l-90 0 0 -150z" /> <path d="M1701 486 c-52 -66 -45 -179 14 -222 47 -34 153 -23 161 18 4 24 -8 29 -55 22 -50 -7 -64 0 -78 39 -27 73 2 127 69 128 82 1 77 57 -5 65 -49 5 -72 -6 -106 -50z" /> <path d="M1940 390 c0 -120 6 -150 30 -150 20 0 30 20 30 60 0 53 7 60 60 60 53 0 60 -7 60 -60 0 -40 10 -60 30 -60 24 0 30 30 30 150 0 120 -6 150 -30 150 -20 0 -30 -20 -30 -60 0 -53 -7 -60 -60 -60 -53 0 -60 7 -60 60 0 40 -10 60 -30 60 -24 0 -30 -30 -30 -150z" /> <path d="M2260 390 c0 -120 6 -150 30 -150 23 0 30 25 30 105 l1 105 61 -105 c94 -162 138 -148 138 45 0 120 -6 150 -30 150 -23 0 -30 -25 -30 -105 l-1 -105 -61 105 c-94 162 -138 148 -138 -45z" /> <path d="M2621 487 c-81 -104 -18 -247 109 -247 76 0 150 74 150 150 0 135 -176 202 -259 97z m169 -97 c0 -105 -115 -126 -126 -23 -10 87 9 116 71 109 50 -5 55 -14 55 -86z" /> <path d="M2940 390 l0 -150 90 0 c67 0 90 8 90 30 0 20 -20 30 -60 30 l-60 0 0 120 c0 93 -7 120 -30 120 -24 0 -30 -30 -30 -150z" /> <path d="M3201 487 c-81 -104 -18 -247 109 -247 76 0 150 74 150 150 0 135 -176 202 -259 97z m169 -97 c0 -105 -115 -126 -126 -23 -10 87 9 116 71 109 50 -5 55 -14 55 -86z" /> <path d="M3550 492 c-111 -111 -25 -271 133 -249 82 12 81 157 -2 157 -41 0 -61 -10 -61 -30 0 -16 14 -30 30 -30 17 0 30 -9 30 -20 0 -40 -81 -20 -98 25 -31 82 10 134 105 135 78 0 58 48 -23 56 -46 5 -77 -7 -114 -44z" /> <path d="M3828 447 c29 -50 52 -118 52 -150 0 -37 10 -57 30 -57 20 0 30 20 30 57 0 32 23 100 52 150 49 88 49 93 12 93 -25 0 -49 -23 -65 -63 l-26 -63 -30 63 c-18 38 -45 63 -68 63 -36 0 -35 -6 13 -93z" /> <path d="M4261 486 c-52 -66 -45 -179 14 -222 47 -34 153 -23 161 18 4 24 -8 29 -55 22 -50 -7 -64 0 -78 39 -27 73 2 127 69 128 82 1 77 57 -5 65 -49 5 -72 -6 -106 -50z" /> <path d="M4521 487 c-81 -104 -18 -247 109 -247 76 0 150 74 150 150 0 135 -176 202 -259 97z m169 -97 c0 -105 -115 -126 -126 -23 -10 87 9 116 71 109 50 -5 55 -14 55 -86z" /> <path d="M4840 391 c0 -180 58 -233 62 -56 l2 95 32 -96 c40 -122 79 -117 126 16 l35 100 1 -105 c2 -79 9 -105 32 -105 24 0 30 30 30 151 0 191 -65 215 -118 44 -16 -52 -35 -95 -42 -95 -7 0 -26 43 -42 95 -53 171 -118 147 -118 -44z" /> <path d="M5240 390 c0 -120 6 -150 30 -150 19 0 30 19 30 50 0 36 11 50 39 50 90 0 139 138 62 179 -21 12 -66 21 -100 21 l-61 0 0 -150z m130 50 c0 -16 -16 -32 -35 -36 -25 -5 -35 6 -35 36 0 30 10 41 35 36 19 -4 35 -20 35 -36z" /> <path d="M5493 390 c-48 -144 -49 -150 -12 -150 22 0 39 14 39 30 0 20 20 30 60 30 40 0 60 -10 60 -30 0 -16 17 -30 39 -30 37 0 36 6 -12 150 -38 113 -60 150 -87 150 -27 0 -49 -37 -87 -150z m112 20 c7 -38 1 -50 -25 -50 -26 0 -32 12 -25 50 5 28 17 50 25 50 8 0 20 -22 25 -50z" /> <path d="M5760 390 c0 -120 6 -150 30 -150 23 0 30 25 30 105 l1 105 61 -105 c94 -162 138 -148 138 45 0 120 -6 150 -30 150 -23 0 -30 -25 -30 -105 l-1 -105 -61 105 c-94 162 -138 148 -138 -45z" /> <path d="M6108 447 c29 -50 52 -118 52 -150 0 -37 10 -57 30 -57 20 0 30 20 30 57 0 32 23 100 52 150 49 88 49 93 12 93 -25 0 -49 -23 -65 -63 l-26 -63 -30 63 c-18 38 -45 63 -68 63 -36 0 -35 -6 13 -93z" /> </g> </svg>